<svg xmlns="http://www.w3.org/2000/svg" viewBox="0 0 665.5 228.23">
    <defs>
        <style>
            .cls-1 {
                fill: #f05a24;
            }

            .cls-2 {
                fill: #ee4137;
            }

            .cls-3 {
                fill: #f79421;
            }

            .cls-4 {
                fill: #ececec;
            }

            .cls-5 {
                fill: #e75931;
            }
        </style>
    </defs>
    <g id="Layer_2" data-name="Layer 2">
        <g id="Layer_1-2" data-name="Layer 1">
            <polygon class="cls-1" points="138.06 0 0 228.23 80.11 228.23 178.12 66.22 138.06 0" />
            <path class="cls-1" d="M190.48,86.65,156.1,143.9l120,84.33Z" />
            <polygon class="cls-1" points="105.2 228.13 241.97 228.13 144.09 163.93 105.2 228.13" />
            <polygon class="cls-2" points="80.11 228.23 138.06 0 0 228.23 80.11 228.23" />
            <polygon class="cls-3" points="275.98 228.13 156.1 143.9 173.58 114.79 275.98 228.13" />
            <polygon class="cls-3" points="241.97 228.13 127.44 191.43 144.09 163.93 241.97 228.13" />
            <path class="cls-4"
                d="M298.68,148.18h32.74l7.39-15.82h48.41L395,148.18h32.72L363,19.54Zm51.23-38.62L363,82.61l13.09,27Z" />
            <path class="cls-4"
                d="M530.23,35.76a42.51,42.51,0,0,0-14.59-9.29,50.84,50.84,0,0,0-18.31-3.25H440.09v125h33.13V113.61H497a51.17,51.17,0,0,0,18.47-3.26,42.55,42.55,0,0,0,24.39-23.59,47,47,0,0,0,3.54-18.52,46.07,46.07,0,0,0-3.54-18.17A44.29,44.29,0,0,0,530.23,35.76ZM510.51,75.48a16.66,16.66,0,0,1-3.13,5.23,14,14,0,0,1-4.92,3.49A16.3,16.3,0,0,1,496,85.48H473.22V52.38H496a16.33,16.33,0,0,1,6.51,1.28,14.59,14.59,0,0,1,4.94,3.42,15.76,15.76,0,0,1,3.11,5.2,19.27,19.27,0,0,1,1.13,6.65A18.42,18.42,0,0,1,510.51,75.48Z" />
            <path class="cls-4"
                d="M662,93a30.14,30.14,0,0,0-9.22-10.11A43.47,43.47,0,0,0,640,77a145.23,145.23,0,0,0-14.39-3.3c-4.86-.85-9.67-1.64-14.31-2.32A91.16,91.16,0,0,1,599,68.76a24.26,24.26,0,0,1-8.45-4.17,8.12,8.12,0,0,1-2.92-6.67,9.78,9.78,0,0,1,2.14-6.48,16.47,16.47,0,0,1,5.54-4.34,29.2,29.2,0,0,1,7.28-2.39,38.92,38.92,0,0,1,7.26-.75,42.74,42.74,0,0,1,7,.58,19.9,19.9,0,0,1,6.33,2.19,17.92,17.92,0,0,1,8.73,11.66l.23.87h31.21l-.27-1.39a51.9,51.9,0,0,0-5.9-16.27,40.74,40.74,0,0,0-10.89-12.22,49.88,49.88,0,0,0-16-7.75A76.48,76.48,0,0,0,609,18.92a72.5,72.5,0,0,0-18.62,2.44A51.4,51.4,0,0,0,573.79,29a41.81,41.81,0,0,0-11.94,13.09,36.68,36.68,0,0,0-4.63,18.74c0,6.14,1.18,11.33,3.5,15.45a30.09,30.09,0,0,0,9.21,10.1,45.21,45.21,0,0,0,12.89,6c4.73,1.38,9.6,2.55,14.48,3.47s9.66,1.72,14.4,2.41A79.85,79.85,0,0,1,624,101a24.39,24.39,0,0,1,8.37,4.34,8.5,8.5,0,0,1,2.94,6.93,11.2,11.2,0,0,1-2.25,7.11,17.07,17.07,0,0,1-5.88,4.75,28.81,28.81,0,0,1-7.85,2.56,45.44,45.44,0,0,1-7.79.75,38.41,38.41,0,0,1-8.43-.92,23,23,0,0,1-7.29-2.94,19.51,19.51,0,0,1-5.52-5.2,15.49,15.49,0,0,1-2.71-7.44l-.11-1h-30.9l.14,1.29A46.72,46.72,0,0,0,561.29,127a40.46,40.46,0,0,0,10.54,13.19,51.73,51.73,0,0,0,16.62,9,72.32,72.32,0,0,0,23.08,3.33A76.85,76.85,0,0,0,631.09,150,54,54,0,0,0,648.4,142a41.43,41.43,0,0,0,12.39-13.72c3.13-5.54,4.71-12.21,4.71-19.83C665.5,102.35,664.32,97.15,662,93Z" />
            <path class="cls-5"
                d="M311.11,208.72V167.48h6.3l18,30.11h-3.3l17.74-30.11h6.3l.06,41.24H349l-.06-29.87h1.54L335.38,204H332l-15.32-25.16h1.76v29.87Z" />
            <path class="cls-5" d="M391,208.72V167.48h7.65v41.24Z" />
            <path class="cls-5"
                d="M433.31,208.72V167.48h6.3l25.87,31.76h-3.12V167.48H470v41.24h-6.31L437.79,177h3.12v31.75Z" />
            <path class="cls-5" d="M504.6,208.72V167.48h7.66v41.24Z" />
            <path class="cls-5"
                d="M547,208.72V167.48h6.3l25.87,31.76H576V167.48h7.6v41.24h-6.31L551.45,177h3.12v31.75Z" />
            <path class="cls-5"
                d="M637.53,209.31a24.41,24.41,0,0,1-8.87-1.56,21.17,21.17,0,0,1-7-4.42,19.94,19.94,0,0,1-4.65-6.74,22.64,22.64,0,0,1,0-17,19.78,19.78,0,0,1,4.68-6.75,21.5,21.5,0,0,1,7.1-4.42,24.66,24.66,0,0,1,8.9-1.56,25,25,0,0,1,9.46,1.71,18.66,18.66,0,0,1,7.1,5l-4.84,4.71a15.79,15.79,0,0,0-5.21-3.56,16,16,0,0,0-6.16-1.15,16.62,16.62,0,0,0-6,1.06,14,14,0,0,0-4.77,3,13.32,13.32,0,0,0-3.09,4.6,16,16,0,0,0,0,11.61,13.59,13.59,0,0,0,3.09,4.62,13.89,13.89,0,0,0,4.71,3,16.52,16.52,0,0,0,6,1.06,18.52,18.52,0,0,0,5.93-1,16,16,0,0,0,5.45-3.28l4.36,5.72a22.72,22.72,0,0,1-7.52,3.92A29,29,0,0,1,637.53,209.31Zm8.9-6.24V187.63h7.25v16.44Z" />
        </g>
    </g>
</svg>